<?xml version="1.0" standalone="no"?>
<!DOCTYPE svg PUBLIC "-//W3C//DTD SVG 20010904//EN"
 "http://www.w3.org/TR/2001/REC-SVG-20010904/DTD/svg10.dtd">
<svg version="1.0" xmlns="http://www.w3.org/2000/svg"
 width="512.000000pt" height="512.000000pt" viewBox="0 0 512.000000 512.000000"
 preserveAspectRatio="xMidYMid meet">
<metadata>
Created by potrace 1.11, written by Peter Selinger 2001-2013
</metadata>
<g transform="translate(0.000000,512.000000) scale(0.100000,-0.100000)"
fill="#000000" stroke="none">
<path d="M400 4240 l0 -800 -93 0 c-119 0 -171 -23 -204 -90 -20 -38 -23 -60
-23 -150 0 -133 20 -183 90 -217 42 -22 56 -23 267 -23 l223 0 -7 -42 c-17
-92 -7 -228 21 -313 42 -124 120 -237 205 -300 22 -16 41 -33 41 -36 0 -3 -37
-20 -83 -37 -435 -165 -746 -612 -750 -1077 -1 -103 2 -128 21 -175 33 -82 86
-147 152 -188 l59 -37 1 -337 0 -338 1081 0 1080 0 -4 598 c-4 666 -4 670 -79
868 -116 308 -376 572 -675 686 -46 17 -83 34 -83 37 0 3 19 20 41 36 86 63
163 176 204 300 29 86 38 213 22 308 l-8 47 1503 0 1504 0 44 23 c70 34 90 84
90 217 0 90 -3 112 -22 150 -34 67 -86 90 -205 90 l-93 0 0 800 0 800 -1040 0
-1040 0 0 -800 0 -800 -80 0 -80 0 0 800 0 800 -1040 0 -1040 0 0 -800z m640
480 l0 -160 400 0 400 0 0 160 0 160 240 0 240 0 0 -720 0 -720 -240 0 -240 0
0 160 0 160 -400 0 -400 0 0 -160 0 -160 -240 0 -240 0 0 720 0 720 240 0 240
0 0 -160z m640 80 l0 -80 -240 0 -240 0 0 80 0 80 240 0 240 0 0 -80z m1600
-80 l0 -160 400 0 400 0 0 160 0 160 240 0 240 0 0 -720 0 -720 -240 0 -240 0
0 160 0 160 -400 0 -400 0 0 -160 0 -160 -240 0 -240 0 0 720 0 720 240 0 240
0 0 -160z m640 80 l0 -80 -240 0 -240 0 0 80 0 80 240 0 240 0 0 -80z m-2240
-1280 l0 -80 -240 0 -240 0 0 80 0 80 240 0 240 0 0 -80z m2240 0 l0 -80 -240
0 -240 0 0 80 0 80 240 0 240 0 0 -80z m-3118 -297 c-27 -32 -55 -68 -61 -80
-12 -23 -13 -23 -256 -23 l-245 0 0 80 0 80 306 0 305 0 -49 -57z m580 46 c91
-19 158 -57 234 -133 195 -196 195 -476 0 -672 -151 -150 -352 -186 -546 -96
-73 34 -188 149 -222 222 -90 194 -55 394 96 546 123 122 272 168 438 133z
m3498 -69 l0 -80 -1524 0 -1523 0 -27 40 c-15 23 -43 59 -63 80 l-35 40 1586
0 1586 0 0 -80z m-3340 -1073 c366 -96 646 -376 748 -747 l26 -95 4 -522 3
-523 -120 0 -121 0 0 578 0 577 -223 223 -222 222 -418 0 -417 0 0 -280 0
-280 -120 0 -120 0 0 -80 0 -80 356 0 c312 0 359 -2 384 -16 81 -48 78 -165
-4 -209 -28 -14 -79 -16 -461 -13 -474 3 -456 1 -524 69 -58 58 -66 82 -65
209 3 465 349 876 824 979 133 29 334 24 470 -12z m-20 -647 l0 -200 200 0
200 0 0 -520 0 -520 -480 0 -480 0 0 240 0 240 153 0 c175 0 232 12 299 63
136 104 136 330 0 434 -67 51 -124 63 -299 63 l-153 0 0 200 0 200 280 0 280
0 0 -200z m225 20 l59 -60 -62 0 -62 0 0 60 c0 33 1 60 3 60 1 0 29 -27 62
-60z m-945 -1020 l0 -240 -160 0 -160 0 0 240 0 240 160 0 160 0 0 -240z"/>
<path d="M2640 1040 l0 -960 1200 0 1200 0 0 960 0 960 -1200 0 -1200 0 0
-960z m800 640 l0 -160 400 0 400 0 0 160 0 160 320 0 320 0 0 -800 0 -800
-1040 0 -1040 0 0 800 0 800 320 0 320 0 0 -160z m640 80 l0 -80 -240 0 -240
0 0 80 0 80 240 0 240 0 0 -80z"/>
<path d="M3920 800 l0 -80 400 0 400 0 0 80 0 80 -400 0 -400 0 0 -80z"/>
<path d="M3920 480 l0 -80 80 0 80 0 0 80 0 80 -80 0 -80 0 0 -80z"/>
<path d="M4240 480 l0 -80 80 0 80 0 0 80 0 80 -80 0 -80 0 0 -80z"/>
<path d="M4560 480 l0 -80 80 0 80 0 0 80 0 80 -80 0 -80 0 0 -80z"/>
</g>
</svg>
